<svg xmlns="http://www.w3.org/2000/svg" viewBox="0 0 547.84 486.98"><defs><style>.cls-1{fill:#b6e0f6;}.cls-2,.cls-7{fill:#fff;}.cls-2{opacity:0.42;}.cls-3,.cls-4,.cls-6{fill:none;}.cls-3,.cls-5,.cls-6,.cls-7{stroke:#000;}.cls-3,.cls-4,.cls-5,.cls-6,.cls-7{stroke-miterlimit:10;}.cls-3,.cls-4,.cls-5,.cls-7{stroke-width:3px;}.cls-4{stroke:#1a1a1a;}.cls-6{stroke-width:2px;}</style></defs><title>Asset 2</title><g id="Layer_2" data-name="Layer 2"><g id="Layer_1-2" data-name="Layer 1"><circle class="cls-1" cx="256.8" cy="247.5" r="157"/><circle class="cls-2" cx="255.3" cy="247.7" r="134.7"/><circle class="cls-2" cx="255.3" cy="247.7" r="109.8"/><circle class="cls-2" cx="255.3" cy="247.7" r="83.1"/><circle class="cls-2" cx="255.3" cy="247.7" r="56.5"/><path class="cls-3" d="M312.8 43.5l115 86.6M396.2 128v27.8M396 129.2l16.5 13.6"/><circle class="cls-4" cx="255.9" cy="248.8" r="156.6" transform="rotate(-75.45 255.87 248.788)"/><path d="M145 230c7.8 0 11 3.7 11 11v2.5c0 5.3-1.3 8.7-5.7 10 5 1.4 7 5.3 7 11v4c.2 7.7-3.4 12-11.3 12l-11.7.3-.7-50.6zm1 45.6c4 0 6-2.3 5.8-7V264c-.2-5.5-2.4-7.4-7.3-7.3h-5l.4 19zm-2-24c4.4 0 6.7-1.6 6.6-7v-3c0-4.3-1.6-6.5-5.7-6.4h-5.6l.2 16.4zM183.8 252v5l-12.2.2.3 18 15-.3v5l-20.7.4-.8-50.6 20.8-.3v5l-15 .3.2 17.3zM217.7 241.2v4.5h-5.3V241c-.2-4.6-2-7.3-6-7.2s-6 2.8-6 7.4l.5 26.7c0 4.5 2 7.2 6 7s5.8-2.7 5.7-7.3v-6.5h5.3v6.2c.2 7.6-3.3 12.7-11 13s-11.6-5-11.7-12.7l-.4-26.2c-.2-7.6 3.3-12.7 11-13s11.6 5 11.7 12.7zM226 241c0-7.7 3.6-12.7 11.4-12.8s11.7 4.8 11.8 12.5l.4 26.2c0 7.5-3.6 12.7-11.4 12.8s-11.7-5-11.8-12.6zm6 26.4c0 4.7 2 7.3 6 7.2s6-2.7 6-7.4l-.4-26.7c0-4.5-2-7.3-6-7.2s-6 2.8-6 7.4zM277.4 278.6H272l-9-40 .6 40.2h-5l-.7-50.5h7.8l9 40.2L282 228h8l.8 50.5h-5.4l-.6-40.6zM305 227.6l.8 50.6h-5.6l-.8-50.5zM320.2 278h-5l-1-50.5h7.3l12.3 36.3-.6-36.6h5l.8 50.5h-6l-13.4-40.6zM370 238.8l.2 4.3-5.4.2v-4.6c0-4.6-2-7.3-6-7.2s-6 2.8-5.8 7.4l.4 26.7c0 4.6 2 7.3 6 7.2s6-2.8 5.8-7.4l-.2-10h-5.2v-5l10.5-.2.2 15c0 7.6-3.4 12.7-11.2 13s-11.4-5-11.6-12.7l-.4-26.2c0-7.5 3.4-12.6 11.2-12.8s11.5 5 11.6 12.6z"/><path class="cls-3" d="M546.6 301.5l-23.7-4.7M474.5 270.7s47.2 24.5 47 26.4-52 2.8-52 2.8zM546 301.3l-6.6 24.7-5.5-9.4-10.4 6 7.6-23.7 14.8 2.3zM473.5 271l-61.7-9.5M468.4 299.7l-60.6-9.5M456 288c2.4.2 4.6-1.8 5-4.7.4-3-1.2-5.5-3.5-5.8l-10-1.4c-2.2-.2-4.4 2-4.8 4.8-.4 2.8 1.2 5.4 3.5 5.7zM412.6 249.7l84-.5 12.8-18-9.7-23.2-92.5-.6M506.8 231l-94 1.3"/><path class="cls-5" d="M488.8 221.8a1.5 1.5 0 0 1-1.6-1.3l-.2-2.6a1.5 1.5 0 0 1 1.3-1.7l2.6-.2a1.5 1.5 0 0 1 1.5 1.4l.2 2.6a1.5 1.5 0 0 1-1.3 1.6zM475.7 221.7a1.5 1.5 0 0 1-1.6-1.3v-2.6a1.5 1.5 0 0 1 1.3-1.6l2.6-.2a1.5 1.5 0 0 1 1.5 1.3l.2 2.6a1.5 1.5 0 0 1-1.4 1.5zM462.7 221.6a1.5 1.5 0 0 1-1.6-1.4v-2.6a1.5 1.5 0 0 1 1.2-1.6l2.6-.2a1.5 1.5 0 0 1 1.6 1.3l.2 2.7a1.5 1.5 0 0 1-1.3 1.6zM447.7 222.7a1.5 1.5 0 0 1-1.6-1.4v-2.6a1.5 1.5 0 0 1 1.2-1.6h2.6a1.5 1.5 0 0 1 1.6 1.2l.3 2.6a1.5 1.5 0 0 1-1.4 1.6zM433 222.2a1.5 1.5 0 0 1-1.5-1.4l-.2-2.6a1.5 1.5 0 0 1 1.3-1.6l2.6-.2a1.5 1.5 0 0 1 1.6 1.3l.3 2.6a1.5 1.5 0 0 1-1.3 1.6z"/><rect class="cls-5" x="416.9" y="217.8" width="5.6" height="5.6" rx="1.5" ry="1.5" transform="rotate(-5.06 419.958 220.713)"/><path class="cls-3" d="M442.6 336.5l-81 93.2M399 313s20 33.6-6.6 60.3-56.2 15-56.2 15"/><path class="cls-3" d="M407.5 335.7l12.6-.2a5 5 0 0 1 5 5 5 5 0 0 1-4.7 5h-12.7M400 315.3l21.7-.4a6.2 6.2 0 0 1 6.2 6 6.2 6.2 0 0 1-6.2 6.3l-16 .2M358.8 392.4l3 12.3a5 5 0 0 0 6 3.6 5 5 0 0 0 3.6-6l-3-12.3M337.2 390.3l5 21a6.2 6.2 0 0 0 7.4 4.5 6.2 6.2 0 0 0 4.6-7.4l-3.8-15.5"/><path class="cls-3" d="M442.6 337.6l-5.2-25.3-20-9.4-14.2-.6M362.7 429.7L341 427l-12-16-3.5-20.8M437 197.8c-6.8 2-13.6-1.4-15.3-7.4s2.3-12.4 9-14.3 22 5.8 22 5.8-9 14-15.8 16zM423.2 190l-20 6.4M306 432c-2-7.5 1.2-15 7.2-16.5s12.6 3 14.6 10.4-5.3 23.7-5.3 23.7S308 439.3 306 432zM313.7 417l-6.4-20.2M277.2 405.8l10 41.3M286 439c8.4-1.7 16.6 5.8 15.4 14.5-1.3 9-11.4 10.7-18.5 12.2-9 1.8-17 1-25.8 2.3a49.4 49.4 0 0 0-13 4.4c-2.3 1-11.6 11.4-11.8 11.7-3.4-5.7-15.6-13.2-22-14.3C184 465 194 446.3 194 446.3"/><path class="cls-3" d="M202 439.4c-6.2-1.3-9 7-7.8 9.8 1.3 3.2 6.3 5.7 12.3 6.4a58.3 58.3 0 0 1 25.8 10s2-3.2 13.7-9c19.4-9.7 43.6-2.7 41-10.7M267.8 406.6l9.2 42.2M258.5 405.6l7.8 44M230.8 405.3l1 58M248.6 406l6.3 46.5M239.8 406.8l3 50M207 399.5l-4 53.5M215.2 401.4l-3 54.8M222.6 403.3l-1.8 55M84 110.8c1 1.2 23.2 12.8 23.2 12.8l26 28.8M132.3 66c1 1 10 24.4 10 24.4L167 119"/><path class="cls-3" d="M133 65.4l-32.7 13.2L82.8 111M83.5 112.3L132 65M140.5 82.8l80.2-31M213.5 32.2c0 1.5 9 24.8 9 24.8l1.4 38.2M279.3 30.4c0 1.5-8.6 25-8.6 25l-1 35.3M280.3 29.4L247 18.8 211.3 32M212 33l67.6-3.5M127.3 118.6a4 4 0 0 1-.3 5.7l-.5.4a4 4 0 0 1-5.7-.2l-8.3-9.2a4 4 0 0 1 .2-5.7l.6-.5a4 4 0 0 1 5.6.4zM140.7 106.5a4 4 0 0 1-.3 5.7l-.5.4a4 4 0 0 1-5.8-.2l-8.3-9.2a4 4 0 0 1 0-5.7l.7-.5a4 4 0 0 1 5.6.3z"/><path class="cls-3" d="M100.5 70.7a6.2 6.2 0 0 1-.7 8.7l-.6.5a6.2 6.2 0 0 1-8.7-.8L88 76.4a6.2 6.2 0 0 1 .8-8.7l.6-.5a6.2 6.2 0 0 1 8.7.7zM255.2 11.5a6.2 6.2 0 0 1-6.4 6h-.7a6.2 6.2 0 0 1-6-6.3l.2-3.7a6.2 6.2 0 0 1 6.3-6h.8a6.2 6.2 0 0 1 6 6.4zM242.7 70a4 4 0 0 1-3.6 4.4h-.7a4 4 0 0 1-4.3-3.6l-1-12.4a4 4 0 0 1 3.5-4.3h.7a4 4 0 0 1 4.4 3.6zM260.7 68.4a4 4 0 0 1-3.7 4.4h-.7a4 4 0 0 1-4.3-3.6L251 57a4 4 0 0 1 3.5-4.5h.7a4 4 0 0 1 4.4 3.6zM173 110.2l-8-15a7.2 7.2 0 0 1 3-10.2h.3c4-2.2 8.5-1 10.6 2.7l8 15M196.5 98L192 82.3a7.8 7.8 0 0 1 5.3-9.6h.2a7.7 7.7 0 0 1 9.8 5l4.6 15.7M163.6 72.6L154 48.8M194 61.4l-9.7-23.8M147.7 51.3l41.5-16.7M152.2 49s4-13.4 13.2-16.6 21 4.8 21 4.8"/><path class="cls-6" d="M165.4 27.6a3.7 3.7 0 0 1-2 4.7l-.5.2a3.7 3.7 0 0 1-4.8-2l-.8-2a3.7 3.7 0 0 1 2-5h.5a3.7 3.7 0 0 1 4.7 2z"/><path class="cls-3" d="M137 397.4c4.5-5.2 12-6 16.7-1.8s4.6 11.8 0 17-21.6 6.7-21.6 6.7.2-16.8 5-22zM152.7 396.8L167 379M165.3 416.7c3.8-5.8 11-7.7 16.3-4.3s6.4 11 2.6 16.7-20.3 10-20.3 10-2.5-16.5 1.3-22.3zM180.8 413.8l12.6-20.4M70 204.5c7.4 1.6 12.5 7.8 11.2 14s-8.3 9.7-16 8.2S46.6 211 46.6 211s15.8-8 23.4-6.5zM79.7 218.2l20.8 3.4M124 162.6L51 121l-20 9-3.2 25 79.7 46.8M33.3 131.4l82 46.2"/><rect class="cls-5" x="39" y="147.7" width="5.6" height="5.6" rx="1.5" ry="1.5" transform="rotate(-64.63 41.823 150.42)"/><path class="cls-5" d="M55.4 155a1.5 1.5 0 0 1 .7 2l-1 2.4a1.5 1.5 0 0 1-2 .7l-2.3-1a1.5 1.5 0 0 1-.7-2l1-2.4a1.5 1.5 0 0 1 2-.7zM66.6 161.8a1.5 1.5 0 0 1 .7 2l-1 2.4a1.5 1.5 0 0 1-2 .7l-2.4-1.2a1.5 1.5 0 0 1-1-2l1.3-2.4a1.5 1.5 0 0 1 2-.7zM80 168.3a1.5 1.5 0 0 1 1 2l-1.3 2.4a1.5 1.5 0 0 1-2 .7l-2.3-1a1.5 1.5 0 0 1-.8-2L76 168a1.5 1.5 0 0 1 2-.8zM92.5 176a1.5 1.5 0 0 1 .7 2l-1 2.5a1.5 1.5 0 0 1-2 .7l-2.4-1.2a1.5 1.5 0 0 1-.7-2l1.2-2.4a1.5 1.5 0 0 1 2-.7zM100.3 184.3l1-2.4a1.5 1.5 0 0 1 2-.8l2.4 1a1.5 1.5 0 0 1 .7 2l-1 2.4a1.5 1.5 0 0 1-2 .7l-2.4-1a1.5 1.5 0 0 1-.7-2z"/><path class="cls-3" d="M28.8 260.7L1 285.7M40 292.2l-37.6-6.7M1.8 284l6 24.3 11.3-3 2.4 6.8 13-3 2 7.2 14-3.7 1.4 6.7 15-5M31 259.5l19.8-7M61 241.5l-12 14M80.5 319.8l-19.7-77.5M58.2 286.8L41 292l-11.5-33.7M50.5 253.6L64 310l16.3 10.7M64 249.5l35.4-3.6M79 312.2l29.8-8.2M88.2 294.8a2.8 2.8 0 0 1 3.5 1.7A2.8 2.8 0 0 1 90 300l-5.2 2a2.8 2.8 0 0 1-3.5-1.7 2.8 2.8 0 0 1 1.6-3.5zM82.5 270.5a2.8 2.8 0 0 1 3.4 2 2.8 2.8 0 0 1-2 3.4l-5.5 1.3a2.8 2.8 0 0 1-3.4-2 2.8 2.8 0 0 1 2-3.4zM85.3 282.5a2.8 2.8 0 0 1 3.4 2 2.8 2.8 0 0 1-2 3.4l-5.4 1.3a2.8 2.8 0 0 1-3.4-2 2.8 2.8 0 0 1 2-3.4zM79.6 258a2.8 2.8 0 0 1 3.3 2 2.8 2.8 0 0 1-2 3.4l-5.5 1.3a2.8 2.8 0 0 1-3.4-2 2.8 2.8 0 0 1 2.2-3.4z"/><path class="cls-3" d="M8 308.4l17.3 54 10.4-3 2.2 8 11-3.4 2 7.3 12-3.7 1.7 6.6 9.8-2.7 2.3 3 7-8-18.5-52.2M129.3 340.4l-48.6 29"/><path class="cls-3" d="M53 403.8l29.8-36.6 16.7 30.5-46.6 6z"/><path class="cls-7" d="M96 398.3l52.8-33.3"/><path class="cls-5" d="M104.7 371.8a1.3 1.3 0 0 1 1.8.4l1.2 2a1.3 1.3 0 0 1-.4 1.7l-2 1.2a1.3 1.3 0 0 1-1.8-.4l-1.2-2a1.3 1.3 0 0 1 .4-1.8zM122 362c1.3-.7 2.6-.8 3 0l1 2c.4.5-.3 1.6-1.6 2.3l-4.2 2.3c-1.2.7-2.6.7-3 0l-1-2c-.4-.5.4-1.6 1.7-2.3z"/><path class="cls-3" d="M65 388l-26.6-.2M38.8 388l12-17.5M96 349.6a3.5 3.5 0 0 1-4.8-1.4l-.3-.6a3.5 3.5 0 0 1 1.4-4.8l9.7-5a3.5 3.5 0 0 1 4.8 1.4l.3.6a3.5 3.5 0 0 1-1.3 4.7zM88.2 333.6a3.5 3.5 0 0 1-4.6-2l-.3-.6a3.5 3.5 0 0 1 2-4.6l10-4a3.5 3.5 0 0 1 4.7 1.8l.2.6a3.5 3.5 0 0 1-2 4.6zM37.6 411.8L53 404"/><ellipse class="cls-3" cx="46.3" cy="407.4" rx="2.2" ry="2.8" transform="rotate(-28.29 46.295 407.312)"/><path class="cls-3" d="M340 85.4l-21.4 19M328.8 78.5L299 98M309.8 65.2l19 13.3M314.5 57.3c-2.3 8-10 13-17 11.2S286.8 59 289 51s19.4-19 19.4-19 8.4 17.4 6 25.3zM298 69L291 96M340 84.7l44 34.3M384.5 118.2l-6.3 32.6M400.2 187l43.7-35M464 121.3l-19 30-16.3-23 35.3-7z"/><path class="cls-7" d="M432.2 127.4l-45 35.7"/><path class="cls-5" d="M410.7 163.3c-1.2 1-2.5 1-3 .4l-1.2-2c-.4-.5.3-1.6 1.5-2.4l4-2.7c1-.8 2.4-1 2.8-.4l1.3 2c.5.5 0 1.7-1.4 2.5zM425.2 153c-1.2.8-2.6 1-3 .4l-1.2-2c-.5-.5.2-1.6 1.4-2.5l4-2.7c1-.8 2.5-1 3-.4l1.2 1.8c.4.6-.3 1.7-1.5 2.6z"/><path class="cls-3" d="M353.6 63a4 4 0 0 1 1 5.5l-.5.6a4 4 0 0 1-5.6 1l-10-7.4a4 4 0 0 1-.8-5.6l.4-.6a4 4 0 0 1 5.6-.8zM380 83.6a4 4 0 0 1 .8 5.7l-.4.5a4 4 0 0 1-5.6 1l-10-7.5a4 4 0 0 1-.8-5.6l.4-.6a4 4 0 0 1 5.6-.7zM407.6 103a4 4 0 0 1 .8 5.7l-.4.6a4 4 0 0 1-5.6.8l-10-7.2a4 4 0 0 1-1-5.6l.6-.6a4 4 0 0 1 5.6-1z"/></g></g></svg>
